<?xml version="1.0" encoding="utf-8"?>
<svg version="1.1" id="Layer_1" xmlns="http://www.w3.org/2000/svg" xmlns:xlink="http://www.w3.org/1999/xlink" x="0px" y="0px" viewBox="0 0 60 37.8" enable-background="new 0 0 60 37.8" xml:space="preserve"> <g> <path fill="#000000" d="M60,18.9c0-2.8-0.4-5.4-1.3-7.7c-0.9-2.3-2.1-4.3-3.7-6c-1.6-1.7-3.5-2.9-5.7-3.9C47.1,0.5,44.7,0,42.1,0 s-5,0.4-7.2,1.3c-2.2,0.9-4.1,2.2-5.7,3.8c-0.1,0.1-0.1,0.1-0.2,0.2c-0.5,0.5-0.9,1.1-1.4,1.7c-0.4-0.5-0.8-1-1.3-1.4 c-0.1-0.1-0.1-0.1-0.2-0.2C24.7,4,22.9,2.8,20.8,2c-2.2-0.8-4.6-1.3-7.2-1.3H0V37h13.6c2.6,0,5-0.4,7.2-1.3c2.1-0.8,3.9-2,5.5-3.4 c0.1-0.1,0.1-0.1,0.2-0.2c0.4-0.4,0.9-0.9,1.3-1.4c1-1.3,1.8-2.7,2.4-4.3c0.9-2.3,1.3-4.8,1.3-7.6c0-1.9,0.2-3.6,0.7-5.1 c0.2-0.5,0.3-1,0.5-1.5c0.4-0.9,0.9-1.8,1.5-2.5c0.9-1.1,2-1.9,3.3-2.5c1.3-0.6,2.8-0.9,4.6-0.9s3.2,0.3,4.6,0.9 C48,7.8,49.1,8.7,50,9.8c0.9,1.1,1.6,2.4,2.1,4c0.5,1.5,0.7,3.3,0.7,5.1c0,2.7-0.5,5-1.4,6.9l-4.6-3.8l-3.8,4.6l4.4,3.7 c-1.5,0.8-3.2,1.2-5.2,1.2c-1.7,0-3.2-0.3-4.6-0.9c-1.3-0.6-2.4-1.5-3.3-2.5c-0.6-0.7-1.1-1.6-1.5-2.5c-0.2,0.6-0.4,1.2-0.6,1.7 c-0.8,1.9-1.8,3.7-3,5.2c0,0,0.1,0.1,0.1,0.1c1.6,1.7,3.5,2.9,5.7,3.8c2.2,0.9,4.6,1.3,7.2,1.3c4.1,0,7.6-1.1,10.5-3.2l3.6,3 l3.8-4.6l-3.2-2.6C58.9,27,60,23.2,60,18.9z M22.9,25.4c-0.4,0.8-0.9,1.5-1.4,2.2c-1.8,2.1-4.5,3.1-7.9,3.1H6.6V7.1h6.9 c3.5,0,6.1,1,7.9,3.1c0.6,0.6,1,1.4,1.4,2.2c0.9,1.8,1.3,4,1.3,6.5C24.2,21.5,23.8,23.6,22.9,25.4z" id="logoSVG"></path> </g> </svg>