<?xml version="1.0" encoding="utf-8"?>
<svg id="Layer_1" data-name="Layer 1" xmlns="http://www.w3.org/2000/svg" xmlns:xlink="http://www.w3.org/1999/xlink" viewBox="0 0 200 200">
  <defs>
    <style>
      .cls-1 {
        fill: url(#linear-gradient);
      }

      .cls-2 {
        fill: #fff;
      }

      .cls-3 {
        fill: url(#Analogous_3);
      }

      .cls-4 {
        fill: #231f20;
      }
    </style>
    <linearGradient id="linear-gradient" x2="200" y2="200" gradientUnits="userSpaceOnUse">
      <stop offset="0" stop-color="#fff"/>
      <stop offset="0.24" stop-color="#fbfbfb"/>
      <stop offset="0.49" stop-color="#eff0f0"/>
      <stop offset="0.73" stop-color="#dbdcdd"/>
      <stop offset="0.96" stop-color="#c0c2c3"/>
      <stop offset="1" stop-color="#bbbdbf"/>
    </linearGradient>
    <linearGradient id="Analogous_3" data-name="Analogous 3" x1="51.33" y1="142.61" x2="150.23" y2="43.71" gradientUnits="userSpaceOnUse">
      <stop offset="0" stop-color="#00a995"/>
      <stop offset="0" stop-color="#3c3795"/>
      <stop offset="0.51" stop-color="#a53594"/>
      <stop offset="1" stop-color="#da2128"/>
    </linearGradient>
  </defs>
  <title>dolphiq-craft-plugin-icon-Rd</title>
  <rect class="cls-1" width="200" height="200"/>
  <g>
    <g>
      <path class="cls-2" d="M98.18,136.86h-5.4l-8.4-26q-3.6-10.44-13-10.44-8.88,0-22.92-.36v36.84H43.58V54.06q9.72-1,27-1,13.8,0,19.2,4.92t5.4,18.48q0,10.8-3.54,15.78t-11.7,6.06v.6q6.36,1.8,9.48,11.52ZM48.5,95.94H70.58q11-.24,15.3-4.2t4.26-15.12q0-11.16-4.26-15.18t-15.3-4q-13,0-22.08.24Z"/>
      <path class="cls-2" d="M157.38,52.86v84h-3.6l-.6-9.6q-12.6,11-23.76,11t-16-7.08q-4.8-7.08-4.8-23.28,0-16.44,4.92-23.4t16.32-7q10.68,0,23.16,5.88-.36-3-.36-11.28V52.86Zm-4.68,70.56V87.06Q139,81.9,130.5,81.9q-9.24,0-13.08,5.76t-3.84,20.16q0,14.4,3.84,20.28t13,5.88a23.13,23.13,0,0,0,10.14-2.4A68.17,68.17,0,0,0,152.7,123.42Z"/>
    </g>
    <g>
      <path class="cls-3" d="M98.18,134.86h-5.4l-8.4-26q-3.6-10.44-13-10.44-8.88,0-22.92-.36v36.84H43.58V52.06q9.72-1,27-1,13.8,0,19.2,4.92t5.4,18.48q0,10.8-3.54,15.78t-11.7,6.06v.6q6.36,1.8,9.48,11.52ZM48.5,93.94H70.58q11-.24,15.3-4.2t4.26-15.12q0-11.16-4.26-15.18t-15.3-4q-13,0-22.08.24Z"/>
      <path class="cls-3" d="M157.38,50.86v84h-3.6l-.6-9.6q-12.6,11-23.76,11t-16-7.08q-4.8-7.08-4.8-23.28,0-16.44,4.92-23.4t16.32-7q10.68,0,23.16,5.88-.36-3-.36-11.28V50.86Zm-4.68,70.56V85.06Q139,79.9,130.5,79.9q-9.24,0-13.08,5.76t-3.84,20.16q0,14.4,3.84,20.28t13,5.88a23.13,23.13,0,0,0,10.14-2.4A68.17,68.17,0,0,0,152.7,121.42Z"/>
    </g>
  </g>
  <g id="Layer_2" data-name="Layer 2">
    <g id="Layer_1-2" data-name="Layer 1-2">
      <path class="cls-4" d="M190,182a9.17,9.17,0,0,0-.55-3.2,7.29,7.29,0,0,0-1.55-2.5,6.88,6.88,0,0,0-2.37-1.61,7.7,7.7,0,0,0-3-.57,8,8,0,0,0-3,.56,6.77,6.77,0,0,0-2.36,1.6l-.06.07c-.21.23-.4.47-.58.71a5.88,5.88,0,0,0-.52-.6l-.08-.07a6.69,6.69,0,0,0-2.28-1.46,8.26,8.26,0,0,0-3-.54H165v15.2h5.66a8.33,8.33,0,0,0,3-.54,6.88,6.88,0,0,0,2.29-1.42l.08-.08a7.45,7.45,0,0,0,.52-.6,6.79,6.79,0,0,0,1-1.78,8.52,8.52,0,0,0,.55-3.16,7.66,7.66,0,0,1,.29-2.13,6.56,6.56,0,0,1,.23-.62,4.19,4.19,0,0,1,.63-1,3.93,3.93,0,0,1,1.39-1.1,5,5,0,0,1,3.8,0,3.93,3.93,0,0,1,1.39,1.07,4.72,4.72,0,0,1,.85,1.65A7.46,7.46,0,0,1,187,182a6.25,6.25,0,0,1-.59,2.86l-1.91-1.59-1.6,1.92,1.81,1.54a4.93,4.93,0,0,1-4.06.12,3.9,3.9,0,0,1-1.38-1.07,4.19,4.19,0,0,1-.63-1c-.07.25-.15.49-.24.73a8,8,0,0,1-1.27,2.15l.05.07a7,7,0,0,0,2.37,1.6,8,8,0,0,0,3,.56,7.18,7.18,0,0,0,4.37-1.32l1.5,1.23,1.58-1.92-1.34-1.1A8.49,8.49,0,0,0,190,182Zm-15.45,2.73a3.92,3.92,0,0,1-.6.9,4.13,4.13,0,0,1-3.29,1.28h-2.87V177.1h2.87a4.13,4.13,0,0,1,3.29,1.28,3.88,3.88,0,0,1,.6.91,7.15,7.15,0,0,1,0,5.45Z"/>
    </g>
  </g>
</svg>
